<?xml version="1.0" encoding="UTF-8"?>
<svg width="752pt" height="752pt" version="1.1" viewBox="0 0 752 752" xmlns="http://www.w3.org/2000/svg">
 <g fill="#fff">
  <path d="m468.87 440.38c-9.9883 0-17.758-8.1406-17.758-17.758 0-9.6211 8.1406-17.758 17.758-17.758 9.9883 0 17.758 8.1406 17.758 17.758 0.003906 9.6172-7.7695 17.758-17.758 17.758zm0-24.418c-3.6992 0-6.6602 2.9609-6.6602 6.6602 0 3.6992 2.9609 6.6602 6.6602 6.6602 3.6992 0 6.6602-2.9609 6.6602-6.6602 0-3.7031-2.9609-6.6602-6.6602-6.6602z"/>
  <path d="m468.87 495.51-31.078-54.02c-6.6602-11.098-6.6602-24.789 0-35.887 6.6602-11.098 18.129-17.758 31.078-17.758 12.949 0 24.789 6.6602 31.078 18.129 6.6602 11.098 6.6602 24.789 0 35.887zm0-96.566c-8.8789 0-17.02 4.8086-21.461 12.578s-4.4414 17.02 0 24.789l21.461 37.367 21.461-37.367c4.4414-7.7695 4.4414-17.02 0-24.789-4.4414-8.1406-12.582-12.578-21.461-12.578z"/>
  <path d="m468.87 508.82c-38.477 0-69.926-31.449-69.926-69.926 0-38.477 31.449-69.926 69.926-69.926 38.477 0 69.926 31.449 69.926 69.926 0 38.48-31.445 69.926-69.926 69.926zm0-128.75c-32.559 0-58.828 26.27-58.828 58.828 0 32.559 26.27 58.828 58.828 58.828 32.559 0 58.828-26.27 58.828-58.828 0-32.559-26.27-58.828-58.828-58.828z"/>
  <path d="m463.69 301.27h-231.61c-10.359 0-18.871-8.5078-18.871-18.871v-56.238c0-10.359 8.5078-18.871 18.871-18.871h231.24c10.359 0 18.871 8.5078 18.871 18.871v56.238c0.36719 10.359-8.1445 18.871-18.504 18.871zm-231.61-82.879c-4.4414 0-7.7695 3.6992-7.7695 7.7695v56.238c0 4.4414 3.6992 7.7695 7.7695 7.7695h231.24c4.4414 0 7.7695-3.6992 7.7695-7.7695l-0.003906-56.238c0-4.4414-3.6992-7.7695-7.7695-7.7695z"/>
  <path d="m265.01 267.23c-2.9609 0-5.5508-2.5898-5.5508-5.5508v-14.43c0-2.9609 2.5898-5.5508 5.5508-5.5508 2.9609 0 5.5508 2.5898 5.5508 5.5508v14.43c-0.003906 2.9609-2.2227 5.5508-5.5508 5.5508z"/>
  <path d="m293.12 267.23c-2.9609 0-5.5508-2.5898-5.5508-5.5508v-14.43c0-2.9609 2.5898-5.5508 5.5508-5.5508s5.5508 2.5898 5.5508 5.5508v14.43c0 2.9609-2.2227 5.5508-5.5508 5.5508z"/>
  <path d="m321.24 267.23c-2.9609 0-5.5508-2.5898-5.5508-5.5508v-14.43c0-2.9609 2.5898-5.5508 5.5508-5.5508 2.9609 0 5.5508 2.5898 5.5508 5.5508v14.43c0 2.9609-2.2188 5.5508-5.5508 5.5508z"/>
  <path d="m430.39 259.09h-58.09c-2.9609 0-5.5508-2.5898-5.5508-5.5508 0-2.9609 2.5898-5.5508 5.5508-5.5508h58.457c2.9609 0 5.5508 2.5898 5.5508 5.5508 0 2.9609-2.5898 5.5508-5.918 5.5508z"/>
  <path d="m265.01 388.95c-2.9609 0-5.5508-2.5898-5.5508-5.5508v-14.797c0-2.9609 2.5898-5.5508 5.5508-5.5508 2.9609 0 5.5508 2.5898 5.5508 5.5508l-0.003906 14.801c0 2.957-2.2188 5.5469-5.5469 5.5469z"/>
  <path d="m293.12 388.95c-2.9609 0-5.5508-2.5898-5.5508-5.5508v-14.797c0-2.9609 2.5898-5.5508 5.5508-5.5508s5.5508 2.5898 5.5508 5.5508v14.801c0 2.957-2.2227 5.5469-5.5508 5.5469z"/>
  <path d="m321.24 388.95c-2.9609 0-5.5508-2.5898-5.5508-5.5508l0.003906-14.797c0-2.9609 2.5898-5.5508 5.5508-5.5508 2.9609 0 5.5508 2.5898 5.5508 5.5508l-0.003906 14.801c0 2.957-2.2188 5.5469-5.5508 5.5469z"/>
  <path d="m422.99 380.44h-50.688c-2.9609 0-5.5508-2.5898-5.5508-5.5508s2.5898-5.5508 5.5508-5.5508h51.059c2.9609 0 5.5508 2.5898 5.5508 5.5508s-2.5898 5.5508-5.9219 5.5508z"/>
  <path d="m265.01 510.3c-2.9609 0-5.5508-2.5898-5.5508-5.5508v-14.43c0-2.9609 2.5898-5.5508 5.5508-5.5508 2.9609 0 5.5508 2.5898 5.5508 5.5508v14.43c-0.003906 3.332-2.2227 5.5508-5.5508 5.5508z"/>
  <path d="m293.12 510.3c-2.9609 0-5.5508-2.5898-5.5508-5.5508v-14.43c0-2.9609 2.5898-5.5508 5.5508-5.5508s5.5508 2.5898 5.5508 5.5508v14.43c0 3.332-2.2227 5.5508-5.5508 5.5508z"/>
  <path d="m321.24 510.3c-2.9609 0-5.5508-2.5898-5.5508-5.5508v-14.43c0-2.9609 2.5898-5.5508 5.5508-5.5508 2.9609 0 5.5508 2.5898 5.5508 5.5508v14.43c0 3.332-2.2188 5.5508-5.5508 5.5508z"/>
  <path d="m415.59 502.17h-43.289c-2.9609 0-5.5508-2.5898-5.5508-5.5508 0-2.9609 2.5898-5.5508 5.5508-5.5508h43.66c2.9609 0 5.5508 2.5898 5.5508 5.5508-0.003907 2.9609-2.5938 5.5508-5.9219 5.5508z"/>
  <path d="m464.43 544.71h-233.09c-9.9883 0-18.129-8.1406-18.129-18.129l-0.003907-57.719c0-9.9883 8.1406-18.129 18.129-18.129h179.81l1.1094 4.0703c7.0312 25.527 30.34 42.918 56.609 42.918 2.2188 0 4.4414 0 7.3984-0.37109l6.2891-0.73828v30.34c0.003906 9.6172-8.1367 17.758-18.125 17.758zm-233.09-82.875c-3.6992 0-7.0312 3.3281-7.0312 7.0312v58.086c0 3.6992 3.3281 7.0312 7.0312 7.0312h233.09c3.6992 0 7.0312-3.3281 7.0312-7.0312v-17.758h-2.5898c-29.969 0-56.238-19.238-65.855-46.988l-171.68-0.003907z"/>
  <path d="m412.26 422.99h-180.93c-9.9883 0-18.129-8.1406-18.129-18.129v-57.719c0-9.9883 8.1406-18.129 18.129-18.129h233.09c9.9883 0 18.129 8.1406 18.129 18.129v34.41l-6.2891-0.73828c-2.9609-0.37109-5.1797-0.37109-7.3984-0.37109-24.789 0-46.988 15.91-55.496 39.219zm-180.93-82.875c-3.6992 0-7.0312 3.3281-7.0312 7.0312v58.086c0 3.6992 3.3281 7.0312 7.0312 7.0312h173.15c10.73-25.898 36.258-42.918 64.379-42.918h2.5898v-22.199c0-3.6992-3.3281-7.0312-7.0312-7.0312z"/>
 </g>
</svg>
